<?xml version="1.0" encoding="utf-8"?>
<!-- Generator: Adobe Illustrator 25.2.3, SVG Export Plug-In . SVG Version: 6.00 Build 0)  -->
<svg version="1.1" id="Layer_1" xmlns="http://www.w3.org/2000/svg" xmlns:xlink="http://www.w3.org/1999/xlink" x="0px" y="0px"
	 viewBox="0 0 16 16" style="enable-background:new 0 0 16 16;" xml:space="preserve">
<style type="text/css">
	.st0{fill:#1F97F9;}
	.st1{fill:#FF8405;}
</style>
<path class="st0" d="M14.9,10c0.6-3.8-2.1-7.4-5.9-7.9V1h0.5C9.8,1,10,0.8,10,0.5S9.8,0,9.5,0h-3C6.2,0,6,0.2,6,0.5S6.2,1,6.5,1H7
	v1.1C5.2,2.3,3.6,3.3,2.5,4.7c-2.4,3.1-1.8,7.5,1.3,9.8l-0.6,0.6c-0.2,0.2-0.2,0.5,0,0.7s0.5,0.2,0.7,0l0.7-0.7
	C5.6,15.7,6.8,16,8,16c1.2,0,2.4-0.3,3.4-0.9l0.7,0.7c0.2,0.2,0.5,0.2,0.7,0c0.2-0.2,0.2-0.5,0-0.7l-0.6-0.6
	C13.7,13.4,14.7,11.8,14.9,10z M8.5,9c0,0.1,0,0.2-0.1,0.3l-1.5,2.5c-0.1,0.2-0.4,0.3-0.7,0.2s-0.3-0.4-0.2-0.7l1.4-2.4V5.5
	C7.5,5.2,7.7,5,8,5s0.5,0.2,0.5,0.5V9z"/>
<path class="st1" d="M0.9,5.4c-1-0.9-1.2-2.5-0.2-3.5s2.5-1.2,3.5-0.2c0.1,0.1,0.2,0.2,0.2,0.2C2.9,2.6,1.6,3.9,0.9,5.4z"/>
<path class="st1" d="M11.6,1.9c0.9-1,2.5-1.2,3.5-0.2s1.2,2.5,0.2,3.5c-0.1,0.1-0.2,0.2-0.2,0.2C14.4,3.9,13.1,2.6,11.6,1.9z"/>
</svg>
